<?xml version="1.0" standalone="no"?>
<!DOCTYPE svg PUBLIC "-//W3C//DTD SVG 20010904//EN"
 "http://www.w3.org/TR/2001/REC-SVG-20010904/DTD/svg10.dtd">
<svg version="1.0" xmlns="http://www.w3.org/2000/svg"
 width="1818.000000pt" height="1818.000000pt" viewBox="0 0 1818.000000 1818.000000"
 preserveAspectRatio="xMidYMid meet">
<metadata>
Created by potrace 1.11, written by Peter Selinger 2001-2013
</metadata>
<g transform="translate(0.000000,1818.000000) scale(0.100000,-0.100000)"
fill="#000000" stroke="none">
<path d="M4578 17345 c-4 -5 -179 -10 -545 -18 -51 -1 -93 -4 -93 -7 0 -3 -33
-6 -73 -6 -71 -2 -199 -10 -287 -19 -25 -2 -72 -6 -105 -9 -33 -4 -82 -9 -110
-12 -27 -3 -70 -7 -95 -9 -25 -2 -72 -8 -105 -14 -102 -17 -139 -23 -155 -23
-8 -1 -21 -5 -27 -11 -7 -5 -13 -7 -13 -4 0 8 -110 -30 -126 -44 -8 -6 -14 -9
-14 -5 0 3 -8 -2 -18 -11 -10 -10 -29 -28 -43 -40 -43 -38 -55 -59 -93 -160
-14 -38 -29 -113 -30 -155 0 -10 -3 -18 -6 -18 -5 0 -10 -37 -13 -92 -1 -16
-5 -28 -9 -28 -5 0 -7 -3 -6 -7 2 -8 -8 -83 -17 -133 -2 -14 -9 -47 -14 -75
-5 -27 -7 -53 -5 -57 3 -5 2 -8 -3 -8 -4 0 -9 -12 -10 -27 -1 -16 -4 -39 -7
-53 -3 -14 -8 -49 -12 -77 -4 -29 -10 -53 -13 -53 -3 0 -6 -12 -7 -27 0 -16
-4 -46 -8 -68 -4 -22 -9 -53 -12 -70 -2 -16 -7 -37 -9 -45 -2 -8 -7 -35 -10
-60 -4 -25 -10 -63 -15 -85 -5 -22 -12 -60 -15 -85 -4 -25 -9 -54 -10 -65 -2
-11 -6 -36 -10 -55 -3 -19 -8 -46 -12 -60 -3 -14 -7 -35 -9 -46 -5 -42 -14
-97 -20 -118 -2 -12 -7 -37 -9 -56 -9 -77 -18 -120 -24 -120 -3 0 -7 -17 -7
-38 -2 -39 -5 -60 -24 -152 -6 -30 -13 -72 -15 -92 -1 -20 -5 -41 -8 -45 -3
-5 -8 -29 -11 -54 -7 -49 -14 -93 -21 -125 -3 -12 -7 -36 -10 -55 -3 -19 -10
-59 -15 -89 -11 -60 -16 -87 -24 -140 -3 -19 -8 -46 -11 -60 -3 -14 -8 -41
-11 -60 -3 -19 -9 -55 -14 -80 -5 -24 -6 -48 -4 -52 3 -5 1 -8 -4 -8 -5 0 -9
-15 -10 -32 0 -18 -3 -44 -7 -58 -3 -14 -8 -38 -11 -55 -3 -16 -7 -41 -10 -55
-8 -39 -17 -103 -18 -122 0 -10 -3 -18 -6 -18 -3 0 -7 -10 -7 -22 -1 -13 -4
-34 -6 -48 -8 -46 -20 -115 -23 -135 -1 -11 -3 -20 -4 -20 -1 0 -3 -9 -4 -20
-2 -11 -6 -38 -10 -60 -4 -22 -9 -53 -12 -70 -2 -16 -7 -37 -9 -45 -2 -8 -7
-37 -11 -65 -3 -27 -8 -52 -9 -55 -2 -3 -6 -26 -10 -50 -7 -53 -13 -86 -20
-120 -3 -14 -8 -40 -11 -59 -3 -18 -8 -43 -10 -55 -3 -11 -7 -34 -9 -51 -2
-16 -6 -42 -9 -56 -3 -14 -8 -41 -10 -60 -3 -19 -5 -34 -6 -34 -1 0 -3 -11 -6
-25 -10 -58 -15 -87 -20 -115 -3 -16 -6 -41 -7 -55 -1 -14 -5 -29 -9 -35 -3
-5 -9 -32 -12 -60 -6 -54 -13 -96 -22 -135 -7 -31 -16 -89 -17 -112 -1 -10 -4
-18 -7 -18 -3 0 -5 -15 -5 -32 1 -18 -1 -37 -4 -43 -6 -11 -6 -11 -15 -70 -6
-40 -11 -66 -21 -115 -2 -14 -7 -41 -10 -60 -13 -79 -16 -96 -20 -110 -2 -8
-7 -33 -10 -55 -3 -23 -8 -52 -11 -65 -4 -23 -9 -50 -20 -125 -12 -74 -12
-102 -1 -130 11 -30 53 -74 72 -76 52 -7 1113 -3 1123 4 6 5 12 7 12 3 0 -12
55 21 84 51 36 36 50 67 60 138 3 17 7 42 10 55 3 14 8 41 10 60 3 19 10 58
16 85 6 28 12 64 15 80 2 17 6 41 8 55 3 14 8 45 12 70 4 25 11 51 17 58 7 8
7 12 -1 12 -7 0 -10 4 -7 8 6 9 11 38 26 132 6 36 13 76 16 90 7 30 9 42 18
100 10 64 14 85 16 88 2 1 4 16 5 32 1 17 4 32 5 35 1 3 4 14 5 25 1 11 4 21
5 23 1 1 3 13 5 27 4 34 14 95 25 155 5 28 11 61 14 75 2 14 9 53 16 88 6 35
13 78 16 95 3 18 7 43 10 57 5 30 14 85 18 120 2 14 6 32 9 40 5 14 9 37 23
144 3 22 7 43 10 47 2 4 6 24 9 45 12 87 -1 79 123 79 62 0 112 -2 112 -5 0
-3 111 -5 246 -5 184 0 248 -3 256 -12 6 -7 8 -13 4 -13 -4 0 0 -13 8 -29 9
-16 12 -31 9 -35 -4 -3 -1 -6 6 -6 7 0 9 -5 6 -10 -4 -6 -2 -16 3 -23 5 -7 15
-30 22 -52 7 -22 17 -46 23 -52 5 -7 7 -13 4 -13 -3 0 8 -37 25 -82 16 -46 31
-90 33 -98 2 -8 12 -35 23 -60 10 -25 23 -58 27 -75 5 -16 9 -33 10 -37 2 -5
4 -10 5 -13 1 -3 3 -8 4 -12 2 -5 7 -19 13 -33 20 -45 26 -65 24 -77 -1 -7 3
-13 9 -13 5 0 9 -3 9 -7 -1 -5 0 -11 1 -15 1 -5 3 -11 4 -15 1 -5 12 -37 25
-73 23 -66 28 -79 30 -93 0 -4 7 -20 16 -37 8 -16 15 -38 15 -50 0 -11 5 -20
11 -20 5 0 8 -4 4 -9 -3 -5 0 -13 6 -16 5 -4 8 -13 5 -21 -3 -8 -1 -14 4 -14
6 0 9 -3 8 -7 -1 -9 7 -31 27 -78 8 -16 11 -33 8 -38 -3 -5 -2 -12 3 -16 5 -3
17 -28 26 -56 20 -61 80 -230 108 -305 12 -30 22 -59 24 -65 1 -5 10 -32 20
-60 28 -78 29 -79 32 -90 6 -25 49 -141 54 -145 3 -3 7 -16 9 -30 1 -14 6 -27
10 -30 3 -3 7 -12 9 -20 7 -40 47 -100 71 -108 44 -14 1219 -9 1263 6 67 24
88 84 58 168 -10 30 -15 54 -12 54 4 0 2 4 -3 8 -6 4 -16 23 -22 42 -16 53
-73 212 -83 235 -5 11 -17 44 -26 73 -9 29 -20 55 -25 58 -5 3 -7 10 -3 15 3
5 1 15 -4 22 -5 7 -12 21 -15 32 -3 11 -24 72 -47 135 -23 63 -42 121 -43 128
0 6 -4 12 -9 12 -5 0 -7 4 -3 9 3 5 1 12 -4 15 -5 3 -12 22 -15 41 -4 19 -11
35 -17 35 -6 0 -8 4 -5 8 3 5 -20 75 -50 157 -29 82 -54 155 -54 162 0 7 -4
13 -8 13 -5 0 -9 6 -10 13 -2 30 -13 62 -22 65 -6 2 -8 8 -5 13 3 4 -1 22 -10
39 -8 16 -12 30 -8 30 4 0 2 5 -5 12 -7 7 -12 19 -12 28 0 8 -6 27 -14 41 -14
28 -30 80 -28 92 1 4 -3 7 -8 7 -6 0 -10 6 -9 13 1 6 -3 24 -9 38 -6 15 -24
66 -42 115 -17 49 -33 96 -37 104 -7 17 -12 33 -16 55 -2 8 -9 21 -15 27 -7 7
-12 20 -12 29 0 10 -9 38 -20 63 -10 25 -17 46 -13 46 3 0 1 6 -5 13 -6 7 -13
25 -16 41 -3 15 -9 33 -14 39 -25 32 -22 90 4 80 8 -3 14 0 14 7 0 6 5 8 10 5
6 -4 16 -3 23 3 7 5 41 20 77 35 36 14 79 32 95 41 17 9 36 16 43 16 7 0 10 5
7 10 -5 9 15 15 38 11 4 0 7 3 7 8 0 5 10 13 22 17 12 3 26 10 32 15 25 20
116 77 116 73 0 -3 6 1 13 8 8 7 26 22 41 33 68 49 95 73 89 79 -3 3 1 6 10 6
8 0 25 12 36 26 12 15 21 24 21 20 0 -12 117 114 185 199 22 28 43 52 48 53 4
2 7 8 7 13 0 5 15 31 33 57 49 69 117 192 117 208 0 9 4 12 10 9 6 -3 7 1 4 9
-3 9 -1 16 5 16 6 0 10 3 9 8 -3 12 13 52 21 52 4 0 8 6 9 13 1 24 11 53 36
110 14 31 24 57 21 57 -2 0 0 12 5 26 15 39 51 175 55 209 3 17 7 41 9 55 11
53 16 76 20 105 7 39 18 160 20 207 1 20 5 40 8 44 4 4 3 15 -2 25 -7 12 -7
20 0 24 7 4 7 12 0 24 -5 10 -6 21 -3 25 10 10 11 66 1 66 -5 0 -6 6 -1 13 10
16 10 38 0 61 -7 14 -6 16 4 11 8 -6 10 -4 4 5 -4 7 -9 34 -10 59 -4 69 -14
142 -24 179 -5 17 -7 32 -4 32 3 0 1 6 -5 13 -6 6 -10 15 -10 20 -1 26 -25
117 -31 117 -4 0 -8 7 -9 15 -1 8 -3 22 -4 30 -1 8 -5 15 -10 15 -5 0 -7 4 -4
9 3 4 -1 17 -9 27 -8 10 -15 25 -15 32 0 7 -7 20 -15 29 -8 8 -13 19 -10 24 4
5 1 9 -4 9 -6 0 -11 7 -11 15 0 8 -9 24 -20 35 -11 11 -18 20 -15 20 11 0 -41
72 -87 121 -15 16 -25 29 -22 29 5 0 -122 125 -156 153 -28 24 -155 114 -170
121 -8 4 -24 12 -35 19 -25 16 -128 71 -135 72 -3 0 -27 11 -54 23 -26 12 -89
36 -140 53 -50 16 -98 33 -106 36 -8 3 -20 7 -27 9 -7 1 -40 9 -75 18 -35 8
-79 18 -98 22 -19 3 -39 7 -45 8 -5 1 -14 4 -20 7 -5 3 -30 7 -55 8 -25 2 -47
6 -50 9 -3 4 -21 8 -40 9 -19 1 -60 4 -90 8 -76 8 -140 13 -238 19 -45 3 -87
8 -92 11 -6 3 -10 1 -10 -5 0 -7 -8 -9 -22 -4 -13 4 -30 7 -38 6 -49 -5 -190
-3 -198 2 -5 3 -11 3 -14 1z m162 -1165 c0 -3 12 -6 28 -6 103 -4 142 -8 142
-15 0 -4 10 -7 23 -7 24 1 73 -7 97 -14 8 -3 38 -13 65 -22 28 -10 56 -18 63
-18 6 -1 12 -5 12 -10 0 -5 5 -6 10 -3 6 3 10 1 10 -5 0 -7 7 -10 15 -6 10 3
15 -1 15 -11 0 -9 3 -13 7 -10 6 6 94 -59 101 -74 2 -4 12 -18 24 -31 22 -24
53 -88 50 -100 -1 -5 2 -8 6 -8 5 0 9 -6 10 -12 0 -7 3 -24 6 -38 6 -24 18
-134 17 -155 0 -5 -1 -36 -3 -67 -2 -35 1 -58 7 -58 7 0 7 -3 0 -8 -5 -4 -11
-11 -11 -17 -6 -38 -17 -133 -18 -147 0 -10 -3 -18 -6 -18 -3 0 -7 -12 -8 -27
-5 -59 -65 -207 -111 -271 -12 -18 -20 -32 -17 -32 3 0 -2 -8 -11 -18 -10 -10
-29 -31 -43 -47 -48 -56 -193 -164 -212 -157 -5 1 -8 -2 -8 -8 0 -5 -7 -6 -17
-3 -11 4 -14 3 -9 -5 4 -7 3 -12 -3 -12 -5 0 -22 -5 -38 -12 -15 -6 -30 -12
-33 -12 -3 -1 -11 -5 -17 -9 -7 -5 -17 -6 -22 -2 -5 3 -12 1 -15 -4 -5 -7 -51
-21 -91 -26 -5 -1 -23 -6 -40 -10 -16 -5 -41 -9 -55 -11 -14 -1 -25 -3 -25 -4
0 -2 -21 -3 -46 -5 -25 -1 -50 -4 -55 -8 -12 -7 -218 -18 -354 -18 -159 -1
-541 10 -551 16 -11 7 -6 47 29 235 11 58 23 123 26 145 7 43 13 75 21 115 2
13 7 40 10 60 3 20 8 47 11 60 3 14 7 36 9 50 2 14 6 36 9 49 3 12 7 42 10 65
3 23 7 49 10 57 3 7 7 30 10 49 3 19 8 49 12 65 9 44 14 76 18 110 1 17 6 39
9 50 3 11 9 38 12 60 3 23 8 52 11 65 9 42 22 126 29 175 2 17 4 30 5 30 1 0
7 26 14 62 5 28 11 29 229 37 71 2 130 6 132 7 6 6 495 5 495 -1z"/>
<path d="M10725 14622 c-1 -2 -15 -5 -30 -8 -15 -3 -33 -6 -39 -7 -6 -1 -17
-8 -25 -15 -7 -7 -20 -11 -28 -7 -11 3 -13 1 -9 -10 3 -9 0 -15 -9 -15 -21 0
-107 -89 -99 -102 5 -7 1 -9 -9 -5 -9 3 -16 3 -16 -1 4 -22 -2 -42 -11 -37 -5
3 -10 -1 -10 -9 0 -9 -4 -16 -10 -16 -5 0 -9 -3 -8 -7 1 -5 -6 -23 -15 -40
-10 -18 -14 -33 -10 -33 5 0 0 -5 -9 -11 -10 -5 -18 -18 -18 -28 0 -9 -7 -26
-15 -37 -8 -10 -15 -29 -15 -42 0 -13 -4 -21 -9 -17 -6 3 -13 -10 -17 -30 -3
-19 -14 -40 -23 -45 -9 -5 -13 -10 -9 -10 4 0 -6 -26 -22 -57 -15 -32 -27 -60
-27 -63 1 -3 -8 -20 -21 -37 -14 -20 -19 -33 -11 -33 7 0 2 -9 -10 -19 -13
-11 -20 -25 -16 -30 3 -6 1 -11 -5 -11 -7 0 -9 -7 -6 -16 4 -10 2 -13 -6 -8
-8 5 -9 2 -5 -10 4 -10 3 -15 -3 -11 -6 3 -10 -3 -10 -15 0 -14 -4 -19 -12
-14 -7 4 -10 4 -6 -1 4 -4 -6 -34 -22 -66 -17 -32 -30 -66 -30 -74 0 -10 -5
-13 -12 -9 -6 4 -8 3 -4 -4 3 -6 -1 -18 -10 -26 -11 -12 -12 -16 -2 -16 7 0 2
-10 -12 -21 -14 -11 -20 -18 -13 -15 14 7 -14 -52 -34 -72 -16 -17 -17 -25 0
-17 6 4 3 -1 -7 -9 -11 -9 -16 -16 -12 -16 5 0 3 -6 -3 -13 -6 -8 -8 -17 -4
-20 3 -4 1 -7 -6 -7 -7 0 -9 -5 -6 -10 3 -6 -1 -13 -10 -16 -13 -6 -14 -8 -3
-15 10 -7 9 -9 -4 -9 -11 0 -15 -5 -12 -15 4 -8 1 -15 -5 -15 -6 0 -10 -3 -9
-7 2 -13 -20 -61 -32 -68 -5 -3 -8 -10 -5 -15 3 -5 -2 -16 -11 -24 -8 -9 -13
-16 -9 -16 3 0 -2 -15 -12 -32 -9 -18 -16 -36 -15 -40 1 -5 -3 -8 -9 -8 -5 0
-8 -4 -4 -9 3 -5 -2 -16 -10 -25 -9 -8 -15 -17 -14 -18 2 -2 -19 -47 -44 -101
-26 -54 -47 -101 -47 -104 0 -4 -8 -15 -17 -26 -10 -11 -12 -17 -6 -13 9 5 11
2 7 -8 -3 -9 -9 -16 -14 -16 -7 0 -44 -80 -41 -92 0 -5 -3 -8 -9 -8 -6 0 -9
-3 -8 -7 1 -5 -8 -27 -20 -49 -11 -23 -18 -44 -15 -48 4 -3 1 -6 -6 -6 -7 0
-10 -4 -7 -9 4 -5 1 -11 -4 -13 -6 -2 -12 -13 -13 -25 0 -12 -5 -19 -9 -17 -7
5 -12 -10 -9 -28 0 -5 -4 -8 -10 -8 -5 0 -8 -4 -5 -8 3 -5 -2 -18 -12 -28 -9
-10 -17 -23 -18 -29 -3 -23 -17 -55 -25 -55 -4 0 -6 -9 -4 -20 3 -13 0 -18 -7
-14 -7 5 -9 1 -5 -9 4 -11 1 -17 -9 -17 -8 0 -12 -4 -9 -10 3 -5 2 -10 -4 -10
-6 0 -8 -6 -5 -14 3 -7 -1 -20 -9 -27 -7 -8 -14 -16 -14 -19 0 -3 -21 -49 -47
-102 -25 -53 -46 -102 -46 -107 0 -6 -4 -11 -10 -11 -5 0 -6 -7 -3 -17 4 -11
3 -14 -5 -9 -7 4 -12 2 -12 -4 0 -6 -9 -30 -19 -53 -11 -23 -18 -45 -18 -48 1
-3 -6 -13 -16 -23 -11 -11 -15 -26 -12 -37 4 -13 2 -19 -6 -17 -7 2 -14 -3
-15 -9 -1 -7 -3 -16 -4 -20 -1 -5 -2 -11 -1 -15 0 -5 -3 -8 -7 -8 -5 0 -14
-16 -22 -35 -8 -19 -18 -35 -24 -35 -5 0 -6 -3 -3 -7 4 -3 0 -17 -8 -30 -9
-13 -12 -23 -9 -23 4 0 0 -8 -8 -17 -13 -15 -28 -46 -32 -63 -1 -3 -15 -32
-31 -65 -16 -33 -29 -64 -30 -68 0 -4 -6 -11 -13 -16 -8 -5 -13 -11 -13 -15 1
-3 1 -7 0 -8 0 -2 -2 -12 -4 -22 -2 -10 -9 -22 -15 -26 -7 -4 -12 -10 -12 -13
0 -20 -12 -47 -21 -47 -6 0 -7 -3 -4 -6 3 -4 1 -16 -5 -28 -7 -11 -11 -24 -10
-28 1 -5 -3 -8 -9 -8 -5 0 -7 -4 -4 -10 3 -5 1 -10 -5 -10 -6 0 -8 -4 -5 -10
3 -5 1 -10 -4 -10 -6 0 -11 -9 -11 -20 0 -11 -4 -20 -10 -20 -5 0 -9 -3 -8 -7
2 -12 -30 -81 -41 -88 -6 -3 -8 -12 -4 -20 3 -8 0 -15 -7 -15 -6 0 -8 -4 -5
-10 3 -5 1 -10 -4 -10 -6 0 -11 -9 -11 -20 0 -11 -7 -23 -16 -27 -12 -4 -13
-7 -3 -14 11 -6 10 -9 -4 -15 -9 -3 -17 -14 -17 -23 0 -9 -5 -22 -12 -29 -7
-7 -8 -12 -2 -12 5 0 4 -4 -2 -8 -15 -10 -64 -113 -51 -106 7 3 4 -1 -5 -9
-10 -8 -15 -17 -11 -20 3 -4 1 -7 -6 -7 -7 0 -9 -4 -6 -10 3 -5 1 -10 -5 -10
-6 0 -9 -4 -5 -9 3 -5 -2 -17 -11 -25 -8 -9 -13 -16 -10 -16 3 0 -13 -35 -35
-79 -21 -43 -39 -83 -39 -88 0 -6 -10 -23 -22 -39 -13 -15 -16 -24 -9 -20 8 5
4 -5 -9 -22 -13 -18 -19 -35 -15 -43 5 -8 4 -10 -3 -5 -8 5 -12 0 -12 -13 0
-12 -5 -21 -11 -21 -5 0 -7 -4 -4 -10 3 -5 2 -10 -3 -10 -9 0 -26 -48 -22 -59
1 -2 -4 -7 -11 -12 -12 -7 -18 -25 -21 -56 -1 -7 -5 -10 -9 -7 -6 3 -20 -24
-24 -46 0 -3 -19 -42 -42 -87 -23 -45 -39 -84 -35 -87 3 -3 0 -6 -6 -6 -6 0
-13 -13 -17 -30 -4 -16 -11 -30 -16 -30 -6 0 -8 -4 -5 -9 3 -5 -1 -14 -9 -21
-8 -7 -12 -16 -9 -21 3 -5 0 -9 -6 -9 -7 0 -10 -7 -6 -15 3 -8 2 -15 -2 -15
-8 0 -38 -62 -34 -72 1 -5 -3 -8 -9 -8 -6 0 -9 -6 -6 -14 3 -8 -1 -17 -9 -20
-8 -3 -14 -15 -14 -26 0 -11 -5 -20 -11 -20 -6 0 -9 -6 -6 -14 3 -8 -1 -17 -9
-20 -8 -3 -13 -9 -13 -13 3 -16 -23 -73 -34 -73 -6 0 -8 -3 -4 -6 3 -4 -1 -21
-10 -38 -9 -17 -18 -37 -19 -45 -2 -8 -9 -18 -16 -22 -7 -5 -9 -9 -4 -9 5 0 3
-7 -4 -15 -7 -8 -9 -15 -6 -15 4 0 0 -7 -8 -16 -9 -8 -14 -20 -11 -25 4 -5 1
-9 -5 -9 -7 0 -10 -7 -6 -15 3 -9 0 -15 -10 -15 -8 0 -13 -4 -9 -9 3 -5 1 -12
-5 -16 -6 -4 -8 -11 -5 -16 4 -5 2 -9 -4 -9 -5 0 -12 -14 -16 -30 -4 -16 -11
-30 -17 -30 -6 0 -8 -6 -5 -14 3 -8 2 -16 -3 -18 -5 -2 -10 -10 -12 -18 -2 -8
-9 -21 -16 -28 -7 -8 -10 -17 -7 -22 3 -4 -2 -13 -10 -20 -8 -7 -12 -16 -9
-21 3 -5 -2 -12 -11 -15 -9 -4 -14 -13 -11 -20 3 -8 1 -14 -5 -14 -6 0 -8 -4
-5 -9 3 -5 -1 -14 -9 -21 -7 -6 -12 -17 -9 -24 3 -8 -2 -16 -10 -19 -9 -4 -13
-13 -10 -22 4 -8 1 -15 -6 -15 -7 0 -10 -7 -6 -15 3 -9 0 -15 -10 -15 -9 0
-12 -5 -8 -11 3 -6 3 -14 -2 -18 -15 -11 -79 -153 -76 -168 2 -8 -1 -12 -7 -9
-6 4 -15 -11 -21 -34 -6 -22 -15 -40 -20 -40 -6 0 -9 -6 -7 -12 1 -7 -4 -12
-11 -10 -8 1 -11 -2 -7 -8 4 -6 -1 -22 -9 -35 -9 -14 -14 -25 -11 -25 2 0 -4
-16 -15 -35 -11 -20 -20 -42 -20 -50 0 -8 -4 -15 -9 -15 -8 0 -22 -32 -25 -55
-1 -5 -4 -12 -7 -15 -3 -3 -23 -41 -44 -85 -22 -44 -42 -81 -46 -83 -4 -2 -4
-12 -1 -24 4 -16 2 -19 -8 -13 -10 6 -12 4 -7 -8 3 -10 3 -17 -1 -17 -8 0 -47
-81 -44 -92 1 -5 -2 -8 -8 -8 -5 0 -10 -7 -10 -15 0 -8 -5 -15 -12 -15 -6 0
-9 -3 -5 -6 3 -4 -2 -23 -13 -44 -11 -21 -16 -40 -13 -44 4 -3 1 -6 -6 -6 -7
0 -9 -4 -6 -10 3 -5 1 -10 -4 -10 -6 0 -11 -7 -11 -16 0 -8 -4 -13 -9 -10 -5
4 -8 -2 -7 -11 2 -10 -3 -24 -11 -31 -7 -8 -11 -18 -8 -23 4 -5 1 -9 -4 -9 -6
0 -10 -3 -9 -7 1 -5 -6 -24 -17 -43 -10 -19 -20 -39 -21 -45 -5 -23 -32 -64
-38 -58 -4 4 -4 0 -1 -9 4 -9 1 -19 -4 -23 -6 -3 -9 -11 -6 -16 4 -5 1 -9 -5
-9 -6 0 -8 -4 -5 -10 3 -6 2 -10 -4 -10 -5 0 -12 -14 -16 -30 -4 -17 -10 -30
-13 -30 -4 0 -16 -21 -26 -48 -10 -26 -26 -56 -35 -66 -9 -11 -10 -16 -4 -12
9 5 11 2 7 -8 -3 -9 -10 -16 -16 -16 -5 0 -7 -4 -3 -9 3 -6 -3 -14 -12 -20
-10 -6 -14 -11 -10 -11 4 0 2 -10 -5 -22 -7 -13 -11 -26 -10 -30 1 -5 -3 -8
-9 -8 -5 0 -7 -5 -4 -10 3 -6 -1 -17 -10 -26 -9 -9 -19 -29 -22 -45 -3 -16 -8
-27 -12 -25 -4 3 -8 -5 -8 -16 -1 -12 -6 -24 -12 -27 -5 -4 -13 -19 -16 -34
-4 -15 -11 -27 -16 -27 -5 0 -8 -3 -7 -7 4 -14 -13 -53 -23 -53 -5 0 -9 -7 -9
-14 0 -8 -11 -35 -24 -60 -14 -26 -22 -46 -19 -46 3 0 -1 -7 -8 -16 -7 -9 -14
-23 -15 -32 -2 -8 -9 -19 -16 -23 -7 -5 -9 -9 -4 -9 5 0 3 -7 -4 -15 -7 -8 -9
-15 -4 -15 5 0 4 -4 -2 -8 -15 -10 -45 -73 -39 -82 3 -4 -2 -11 -11 -14 -8 -3
-12 -10 -9 -16 3 -5 2 -10 -4 -10 -5 0 -13 -15 -17 -32 -3 -18 -14 -39 -23
-46 -10 -9 -11 -11 -2 -6 9 4 6 -6 -8 -24 -12 -18 -20 -36 -17 -41 3 -5 -1
-12 -10 -15 -8 -3 -12 -10 -9 -16 3 -5 1 -10 -5 -10 -6 0 -8 -4 -5 -10 3 -5 1
-10 -4 -10 -6 0 -11 -7 -11 -15 0 -8 -9 -29 -19 -47 -11 -17 -18 -35 -15 -40
3 -4 0 -8 -6 -8 -6 0 -9 -4 -6 -9 4 -5 3 -11 -1 -13 -7 -2 -43 -71 -48 -88 -5
-18 -42 -86 -50 -92 -5 -4 -7 -8 -2 -8 4 0 1 -10 -8 -23 -8 -13 -13 -26 -10
-29 3 -3 -1 -11 -10 -18 -8 -7 -15 -23 -15 -36 0 -13 -6 -27 -13 -31 -6 -4
-17 -19 -23 -33 -6 -14 -17 -36 -23 -50 -6 -14 -15 -32 -20 -40 -5 -8 -18 -37
-28 -63 -10 -26 -26 -57 -35 -67 -13 -13 -14 -20 -5 -23 9 -4 9 -6 0 -6 -7 -1
-13 -7 -13 -15 0 -8 -7 -22 -16 -30 -8 -9 -12 -16 -9 -16 4 0 -2 -16 -14 -36
-12 -19 -21 -42 -21 -50 0 -8 -4 -14 -10 -14 -5 0 -6 -7 -3 -17 5 -12 3 -14
-7 -8 -10 6 -12 4 -7 -8 3 -9 3 -17 -2 -19 -9 -4 -55 -100 -53 -110 1 -5 -3
-8 -9 -8 -5 0 -8 -4 -5 -9 3 -5 -1 -14 -9 -21 -8 -7 -15 -16 -15 -21 0 -15
-52 -124 -61 -127 -4 -2 -5 -10 -2 -18 3 -8 0 -14 -7 -14 -6 0 -9 -4 -6 -9 3
-5 -1 -14 -9 -21 -8 -7 -15 -18 -15 -26 0 -7 -9 -29 -21 -48 -12 -20 -18 -36
-14 -36 3 0 -1 -7 -9 -16 -9 -8 -14 -19 -11 -24 3 -4 -2 -13 -10 -20 -8 -7
-12 -16 -9 -21 3 -5 0 -9 -6 -9 -7 0 -9 -7 -6 -16 3 -8 2 -12 -4 -9 -6 3 -10
0 -10 -7 0 -19 -23 -68 -32 -68 -5 0 -8 -9 -8 -20 0 -11 -5 -20 -11 -20 -5 0
-8 -4 -4 -9 3 -5 0 -15 -7 -23 -7 -7 -15 -22 -16 -33 -2 -11 -10 -27 -18 -36
-8 -8 -14 -23 -14 -32 0 -9 -5 -17 -11 -17 -5 0 -7 -4 -4 -10 3 -5 1 -10 -6
-10 -7 0 -10 -3 -6 -6 3 -3 -10 -35 -28 -70 -19 -36 -35 -66 -35 -69 -7 -27
-35 -85 -42 -85 -5 0 -7 -4 -3 -9 3 -5 1 -12 -5 -16 -6 -4 -8 -11 -5 -16 4 -5
2 -9 -3 -9 -9 0 -37 -64 -33 -75 1 -4 -6 -13 -16 -21 -10 -7 -13 -14 -8 -14 6
0 4 -4 -2 -8 -7 -5 -14 -20 -15 -34 -1 -18 -7 -24 -16 -20 -11 4 -13 0 -7 -16
4 -14 2 -22 -5 -22 -6 0 -8 -5 -5 -10 3 -6 2 -10 -2 -10 -5 0 -17 -22 -28 -50
-11 -27 -22 -50 -26 -50 -7 0 -20 -43 -18 -56 0 -4 -4 -10 -10 -14 -6 -3 -13
-15 -16 -26 -2 -10 -8 -32 -13 -49 -5 -16 -5 -39 -1 -50 19 -51 22 -61 20 -68
0 -4 6 -10 14 -13 8 -3 12 -10 9 -15 -3 -5 -1 -9 5 -9 6 0 22 -12 37 -27 15
-16 24 -23 20 -17 -3 7 11 3 31 -7 20 -10 40 -16 44 -13 5 3 9 1 9 -3 0 -10
1982 -9 2025 1 16 4 35 12 42 18 7 6 13 7 13 2 0 -5 5 -1 11 9 6 9 14 15 20
12 5 -4 9 -1 9 4 0 6 7 11 15 11 8 0 15 3 15 8 0 4 13 21 28 37 15 17 23 24
17 15 -9 -13 -8 -13 8 -1 9 7 17 19 17 26 0 6 9 20 20 30 11 10 17 22 14 26
-3 5 0 9 5 9 6 0 11 4 11 10 0 5 14 32 30 60 17 28 30 60 30 71 0 11 6 22 14
25 8 3 12 12 9 20 -3 8 -1 14 5 14 9 0 23 30 26 55 1 6 8 18 16 28 8 10 15 21
15 25 1 4 9 22 18 40 10 18 15 38 11 44 -4 7 -3 8 4 4 11 -6 16 6 13 27 0 4 4
7 10 7 5 0 7 5 4 10 -3 6 -1 10 5 10 7 0 9 7 6 16 -3 8 -2 13 3 9 5 -3 12 8
16 25 4 16 11 30 16 30 5 0 8 3 7 8 -1 4 6 22 15 40 10 17 14 32 11 32 -4 0 3
12 17 27 13 14 18 23 12 19 -9 -5 -11 -2 -7 8 3 9 11 16 16 16 6 0 7 7 4 16
-4 9 -2 13 5 8 7 -4 10 -1 7 7 -2 7 5 22 16 32 12 10 15 15 7 12 -9 -5 -8 1 4
19 10 14 14 26 10 26 -3 0 1 7 9 16 9 8 14 19 11 24 -3 4 2 13 10 20 8 7 15
18 15 26 0 7 7 20 16 28 9 10 11 16 4 16 -7 0 -5 6 4 16 9 8 16 24 16 35 0 10
4 19 9 19 8 0 23 31 24 50 0 3 7 11 14 18 7 7 13 21 13 30 0 9 7 26 15 36 8
10 12 23 9 27 -3 5 -1 9 3 9 5 0 14 9 21 21 11 16 11 19 1 13 -7 -4 -3 6 9 23
12 17 19 33 15 37 -3 3 -1 6 5 6 7 0 12 9 12 21 0 12 4 17 11 13 7 -4 10 1 7
12 -2 11 4 28 14 38 9 10 15 22 13 26 -3 4 2 13 11 20 12 11 12 15 2 21 -9 6
-7 9 7 9 15 0 17 3 7 9 -11 7 -11 9 1 14 8 3 18 19 22 36 4 17 11 31 16 31 5
0 9 7 9 15 0 8 5 15 11 15 5 0 8 4 4 9 -3 6 4 26 15 46 11 20 17 41 14 47 -4
7 -2 8 4 4 7 -4 12 -2 12 5 0 7 8 21 18 32 9 11 11 17 5 13 -20 -11 -15 1 10
25 12 12 16 18 8 14 -9 -5 -8 1 4 18 9 15 14 30 11 36 -3 5 1 12 10 15 9 4 14
9 11 12 -3 4 1 13 9 21 8 9 18 28 21 44 3 16 9 29 14 29 5 0 9 9 9 20 0 11 5
20 11 20 5 0 7 5 4 10 -3 6 -1 10 5 10 6 0 10 8 8 18 -2 10 2 16 10 14 8 -1
11 2 8 7 -5 8 29 86 44 101 3 3 6 14 8 24 2 11 11 30 19 43 8 12 12 23 7 23
-4 0 1 7 12 15 10 8 15 15 11 15 -5 0 3 20 17 45 15 24 27 46 27 47 -1 15 13
48 19 48 8 0 25 49 22 63 -1 4 3 7 9 7 6 0 8 7 5 17 -4 10 -4 14 0 10 8 -7 39
51 36 66 -1 4 3 7 9 7 6 0 9 7 5 15 -3 8 -2 15 3 15 7 0 31 41 37 63 1 4 3 10
4 15 1 4 2 11 1 15 -1 4 6 10 14 13 8 4 15 15 15 25 0 10 4 19 10 19 5 0 7 7
4 15 -4 8 -2 15 4 15 9 0 27 48 22 59 -1 2 4 7 12 12 7 5 13 12 13 16 1 4 6
17 12 28 6 11 11 22 11 25 1 15 15 39 21 36 3 -2 7 7 8 21 0 14 6 29 13 33 6
4 11 9 11 11 -3 11 24 69 32 69 4 0 6 4 2 9 -3 5 0 15 7 23 7 7 14 20 16 28 2
8 16 40 32 71 16 32 26 60 23 63 -4 3 2 6 13 6 16 0 17 2 4 10 -10 6 -11 10
-2 10 6 0 12 6 12 14 0 8 7 22 16 30 8 9 13 16 9 16 -3 0 2 15 12 33 9 17 18
38 19 46 2 8 8 17 14 21 7 4 11 10 11 14 -1 3 11 32 26 64 14 31 26 60 25 65
-1 4 2 7 7 7 5 0 12 10 16 23 4 12 8 24 9 27 1 3 5 15 10 28 4 12 12 22 17 22
6 0 8 4 5 9 -3 5 4 21 16 37 13 15 16 24 8 19 -8 -5 -5 4 7 21 11 16 21 32 22
36 3 16 36 83 43 86 4 2 4 10 1 18 -3 8 0 14 6 14 6 0 11 9 11 20 0 11 4 20 8
20 5 0 15 18 22 40 7 22 17 40 22 40 4 0 8 6 8 13 0 6 11 33 25 58 13 26 21
50 17 54 -4 3 1 11 11 16 9 6 15 14 12 20 -4 5 -1 9 5 9 6 0 8 5 5 10 -3 6 -2
10 4 10 6 0 7 7 4 17 -4 11 -3 14 5 9 7 -4 12 -2 12 6 0 7 7 26 15 42 8 15 12
33 8 40 -3 6 -3 8 2 4 9 -8 48 63 59 106 3 14 11 26 16 26 5 0 6 7 3 17 -4 11
-3 14 5 9 7 -4 12 -1 12 9 0 8 13 41 30 71 16 31 27 61 23 67 -3 6 -1 7 5 3 8
-5 12 0 12 13 0 11 7 27 16 35 8 9 12 16 8 16 -3 0 -1 6 5 13 6 8 8 17 4 20
-3 4 -1 7 6 7 7 0 9 5 6 10 -3 6 -1 10 4 10 6 0 11 8 11 19 0 10 7 24 15 31 8
7 15 21 15 30 0 10 4 20 9 22 5 2 11 14 13 28 1 13 11 33 21 43 10 10 15 22
12 27 -4 6 -1 10 4 10 6 0 11 5 11 10 0 6 20 51 45 102 24 50 42 95 39 99 -3
5 0 9 5 9 6 0 11 7 11 15 0 8 5 15 11 15 6 0 9 7 5 15 -3 9 0 15 10 15 8 0 12
4 9 10 -3 5 2 21 11 35 9 14 12 25 8 25 -5 0 -4 4 1 8 18 13 37 60 30 73 -5 8
-4 10 4 5 11 -7 33 32 24 47 -2 4 1 7 8 7 7 0 10 3 6 6 -3 3 1 13 9 22 8 10
14 22 15 27 0 6 7 18 16 27 8 9 12 21 9 27 -4 5 -2 13 4 16 11 7 41 74 39 89
0 5 4 12 9 15 11 7 57 103 54 114 -1 4 3 7 9 7 6 0 9 6 6 14 -3 8 1 17 9 20 9
3 12 10 9 16 -3 5 -2 10 4 10 6 0 7 7 4 17 -4 10 -2 14 5 9 7 -4 13 6 18 29 3
19 10 35 14 35 7 0 14 17 18 43 1 4 8 15 17 24 9 8 14 22 11 29 -3 8 -2 14 2
14 9 0 47 78 47 95 0 6 8 18 18 28 10 10 15 22 12 27 -4 6 -1 10 5 10 6 0 9 4
5 9 -3 6 2 14 11 19 10 6 15 16 11 25 -3 9 1 18 9 21 9 3 13 10 10 15 -4 5 0
16 8 24 8 8 12 17 9 21 -4 3 -1 6 6 6 7 0 10 4 7 8 -2 4 10 36 29 70 18 34 28
59 21 55 -6 -3 -4 2 5 13 24 28 70 134 63 145 -3 5 0 8 8 7 7 -2 12 3 11 10
-2 6 2 12 8 12 5 0 8 4 4 10 -3 5 3 18 13 28 10 10 16 24 14 30 -2 7 1 12 8
12 6 0 8 5 5 10 -3 6 -1 10 5 10 6 0 8 5 5 10 -3 6 1 17 9 26 9 9 14 20 11 25
-4 5 -2 9 4 9 5 0 12 14 16 30 4 17 11 30 17 30 6 0 8 7 4 15 -3 8 -1 15 5 15
6 0 7 5 4 10 -3 6 -3 10 2 10 9 0 39 61 35 73 -1 4 3 7 9 7 5 0 8 4 5 9 -4 5
-1 11 4 13 6 2 12 13 13 25 0 12 5 19 9 17 4 -3 8 -1 8 5 0 5 5 22 12 38 6 15
11 31 10 36 -1 4 3 7 8 7 6 0 10 7 10 15 0 8 4 15 10 15 5 0 9 3 8 8 -3 14 14
62 23 62 5 0 9 4 9 9 0 5 8 26 17 47 9 22 17 43 17 47 1 4 8 12 16 17 8 5 11
10 6 10 -5 0 -1 10 10 22 12 13 13 18 4 13 -12 -7 -13 -6 -3 7 7 8 10 18 6 21
-3 4 -1 7 6 7 12 0 38 57 33 73 -1 4 3 7 10 7 6 0 9 3 5 6 -3 3 3 15 13 26 10
11 16 26 13 34 -3 8 0 14 7 14 7 0 10 7 6 16 -5 12 -2 15 9 10 9 -3 13 -2 10
4 -9 15 5 51 17 44 7 -5 8 -2 3 6 -4 7 -3 15 3 19 5 3 12 15 14 26 1 11 5 22
8 25 9 9 34 65 32 73 -1 4 2 7 7 7 8 0 17 21 26 58 2 8 10 21 18 30 8 10 12
23 10 30 -3 6 0 12 6 12 6 0 11 7 11 15 0 8 5 15 11 15 5 0 7 5 4 10 -3 6 1
17 9 26 9 8 16 24 16 34 0 10 5 22 11 25 6 4 8 13 5 21 -3 8 0 13 6 11 7 -1
13 4 14 11 1 6 3 15 4 20 1 4 2 10 1 15 0 4 4 7 10 7 5 0 7 5 4 10 -3 6 -2 10
3 10 6 0 13 11 16 25 4 14 11 25 16 25 5 0 6 7 3 17 -5 12 -3 14 7 8 10 -6 12
-4 7 8 -3 10 -2 17 3 17 6 0 9 3 8 8 -1 4 8 27 20 51 12 25 22 51 22 58 0 7 4
13 9 13 5 0 12 14 16 30 4 17 11 30 16 30 5 0 9 9 9 20 0 11 5 20 10 20 6 0 9
3 8 8 -1 4 8 26 20 48 11 23 18 44 15 48 -4 3 -1 6 6 6 7 0 9 5 6 10 -3 6 -1
10 5 10 7 0 10 7 6 15 -3 8 -1 15 4 15 6 0 10 7 10 15 0 8 5 15 11 15 5 0 7 5
4 10 -3 6 -1 10 5 10 6 0 8 5 5 10 -3 6 -1 10 5 10 6 0 8 5 5 10 -3 6 -1 10 5
10 6 0 9 4 6 8 -3 5 4 23 15 40 10 18 19 39 19 47 0 8 5 15 11 15 5 0 7 5 4
10 -3 6 -2 10 3 10 6 0 13 7 16 16 4 10 2 13 -7 9 -6 -4 -3 1 7 9 11 9 17 16
13 16 -4 0 0 11 9 25 9 14 12 25 8 25 -5 0 0 7 10 15 11 8 17 15 13 15 -4 0 0
15 10 33 9 17 16 38 14 46 -1 7 2 10 8 7 5 -3 12 7 16 24 4 16 11 30 17 30 6
0 8 3 5 6 -3 4 -1 16 5 28 7 11 11 24 10 29 -1 4 3 7 9 7 5 0 8 4 5 9 -4 5 -3
11 1 13 10 4 47 80 45 91 -1 4 2 7 8 7 6 0 9 3 8 8 -1 4 9 30 22 57 13 28 24
53 25 58 2 4 4 10 5 15 1 4 2 11 1 15 -1 5 3 6 9 2 6 -4 13 7 16 24 4 17 10
31 15 31 5 0 8 3 8 8 -3 13 23 72 32 72 4 0 6 7 3 15 -4 8 1 17 9 21 9 3 14
14 12 25 -2 11 2 19 10 19 8 0 12 6 9 14 -3 7 2 21 11 29 9 9 16 19 16 22 0
13 39 94 48 100 6 3 9 10 6 15 -3 5 2 21 11 35 9 14 12 25 8 25 -5 0 -4 4 2 8
18 11 76 140 69 152 -4 6 -1 9 7 8 8 -2 12 4 10 16 -2 11 1 15 7 11 9 -5 13 7
10 31 0 4 5 10 13 15 7 5 13 12 13 16 1 4 6 18 13 29 6 12 8 24 5 28 -3 3 -1
6 6 6 7 0 9 5 6 10 -3 6 -2 10 4 10 5 0 12 14 16 30 4 17 11 30 16 30 6 0 7 5
4 10 -3 6 -1 10 4 10 6 0 10 3 9 8 -4 14 14 52 24 52 6 0 8 3 5 6 -3 4 -1 16
5 28 7 11 11 24 10 29 -1 4 3 7 9 7 5 0 7 5 4 10 -3 6 -3 10 2 10 4 0 13 11
20 25 7 15 7 25 1 25 -5 0 -3 6 4 14 17 16 23 102 8 111 -5 3 -10 13 -10 21 0
25 -63 80 -114 99 -45 17 -106 18 -1038 19 -544 1 -991 0 -993 -2z"/>
<path d="M13965 6800 c2 -3 -40 -6 -93 -6 -136 -3 -333 -13 -522 -29 -47 -4
-103 -9 -125 -10 -22 -2 -40 -4 -40 -5 0 -1 -22 -3 -50 -5 -27 -2 -70 -7 -95
-10 -25 -3 -67 -7 -95 -9 -27 -2 -57 -6 -65 -9 -8 -3 -33 -8 -55 -11 -81 -9
-117 -15 -138 -22 -12 -4 -27 -9 -34 -10 -40 -7 -132 -61 -171 -99 -24 -25
-41 -45 -38 -45 4 0 -1 -12 -12 -27 -10 -16 -17 -34 -14 -42 2 -8 0 -11 -5 -8
-10 7 -46 -134 -47 -185 -1 -16 -4 -28 -7 -28 -4 0 -6 -16 -5 -35 1 -19 -2
-36 -5 -37 -4 -2 -10 -25 -13 -53 -4 -27 -10 -61 -13 -75 -4 -13 -7 -36 -9
-50 -1 -14 -3 -25 -4 -25 -1 0 -3 -11 -5 -25 -3 -24 -14 -87 -20 -120 -8 -39
-19 -116 -17 -122 1 -5 -2 -8 -7 -8 -5 0 -9 -10 -8 -22 0 -21 -5 -61 -18 -128
-18 -93 -28 -161 -29 -182 0 -10 -3 -18 -6 -18 -4 0 -7 -6 -7 -12 -2 -34 -13
-108 -23 -153 -7 -27 -13 -61 -14 -75 -1 -14 -4 -29 -7 -35 -3 -5 -5 -22 -4
-37 1 -16 -1 -28 -5 -28 -3 0 -6 -10 -6 -22 -1 -13 -8 -61 -17 -108 -9 -47
-19 -98 -22 -115 -6 -37 -10 -61 -26 -145 -16 -94 -21 -123 -24 -145 -1 -11
-3 -20 -5 -20 -2 0 -6 -22 -13 -75 -3 -19 -8 -51 -12 -70 -8 -46 -13 -76 -20
-125 -4 -22 -9 -47 -12 -55 -4 -8 -7 -24 -8 -35 -1 -20 -14 -104 -22 -140 -2
-11 -8 -42 -13 -70 -5 -27 -12 -66 -16 -85 -4 -19 -7 -47 -8 -62 0 -16 -4 -28
-8 -28 -5 0 -7 -3 -6 -7 1 -5 -2 -33 -7 -63 -5 -30 -9 -62 -11 -70 -1 -8 -5
-31 -9 -50 -3 -19 -8 -46 -10 -60 -2 -14 -6 -36 -9 -50 -7 -37 -37 -202 -40
-225 -2 -11 -6 -33 -9 -50 -3 -16 -9 -46 -11 -65 -3 -19 -12 -68 -20 -108 -7
-39 -11 -72 -9 -72 3 0 1 -6 -4 -12 -5 -7 -8 -23 -7 -35 0 -13 -2 -23 -6 -23
-4 0 -6 -10 -5 -22 1 -13 -2 -36 -6 -52 -8 -27 -20 -103 -22 -133 0 -7 -3 -13
-6 -13 -3 0 -6 -12 -7 -28 0 -15 -4 -45 -8 -67 -5 -22 -9 -51 -11 -65 -2 -14
-4 -25 -5 -25 -1 0 -4 -13 -6 -30 -3 -16 -9 -52 -14 -80 -5 -27 -12 -65 -15
-82 -3 -18 -8 -48 -11 -65 -4 -18 -7 -40 -9 -48 -13 -86 -19 -110 -28 -110 -8
0 -8 -3 0 -11 7 -7 8 -21 2 -43 -9 -30 -17 -70 -24 -125 -2 -14 -4 -28 -5 -31
-3 -6 -4 -11 -14 -75 -5 -27 -11 -59 -13 -70 -3 -11 -6 -31 -8 -45 -1 -14 -3
-25 -5 -25 -1 0 -3 -11 -5 -25 -2 -14 -6 -41 -10 -60 -3 -19 -7 -44 -9 -55 -2
-11 -7 -40 -11 -65 -5 -25 -8 -51 -6 -57 1 -7 -2 -13 -6 -13 -4 0 -8 -10 -9
-22 -1 -13 -5 -45 -9 -73 -4 -27 -9 -59 -10 -70 -2 -11 -4 -20 -5 -20 -2 0 -8
-32 -16 -85 -7 -44 -8 -74 -5 -116 1 -24 58 -87 71 -79 5 3 11 1 15 -5 9 -15
1076 -14 1126 2 48 14 111 71 127 113 11 28 27 107 37 180 2 17 6 40 9 52 2
11 8 43 12 70 3 26 9 52 12 57 3 5 6 28 7 50 1 23 4 46 7 51 3 6 9 30 12 55 3
25 9 56 12 70 3 14 7 41 10 60 5 41 12 75 14 75 1 0 3 14 5 30 2 17 6 45 9 63
3 17 9 47 12 65 3 17 7 46 9 62 2 17 5 31 6 33 3 4 5 16 14 77 10 65 11 74 15
78 1 1 3 16 5 32 1 17 4 30 5 30 1 0 4 14 6 30 3 17 6 46 9 65 2 19 8 52 13
72 6 20 7 39 5 42 -3 2 -1 10 3 17 8 13 12 34 18 94 2 17 5 30 6 30 1 0 3 11
5 25 1 14 6 41 9 60 4 19 11 60 16 90 6 30 13 66 16 80 3 14 7 41 9 60 5 40
14 90 20 106 4 13 142 13 162 1 7 -4 14 -3 18 3 4 6 11 7 17 4 23 -15 561 -22
783 -10 55 2 100 5 100 6 0 0 26 3 59 5 32 2 77 6 100 9 22 3 64 8 91 11 28 3
64 8 80 12 17 3 41 7 55 8 71 10 108 16 143 26 22 6 45 8 53 5 8 -3 14 -1 14
5 0 6 4 8 9 4 5 -3 12 -1 16 4 3 5 14 8 25 6 11 -2 20 1 20 6 0 6 4 8 10 4 5
-3 25 1 44 9 19 8 37 12 40 9 3 -3 12 0 21 7 8 7 15 9 15 5 0 -4 7 -2 15 5 8
6 19 9 25 5 5 -3 10 -2 10 2 0 5 12 10 27 11 15 1 32 7 37 12 6 6 17 10 25 10
9 0 29 7 45 15 15 8 39 17 51 19 13 2 35 12 49 21 14 10 26 15 26 12 0 -3 31
10 70 29 38 18 74 34 78 34 5 0 15 7 22 15 7 8 16 13 20 10 4 -3 13 2 20 10 7
8 19 15 26 15 8 0 14 5 14 10 0 6 5 10 11 10 6 0 30 14 54 30 24 17 48 30 54
30 6 0 11 3 11 8 0 4 17 18 38 32 20 13 46 32 57 42 134 116 198 178 253 246
20 26 44 52 52 59 8 7 11 13 5 13 -6 0 -5 4 1 8 7 4 33 39 58 77 25 39 49 75
53 80 25 32 128 253 125 268 -1 4 3 7 10 7 6 0 9 2 6 5 -3 3 7 40 23 82 15 42
26 80 23 85 -3 4 0 8 6 8 6 0 9 4 5 9 -3 5 -1 12 5 16 6 4 8 10 5 15 -4 7 5
44 22 90 4 8 7 29 8 45 1 17 5 37 8 45 4 8 8 31 11 50 2 19 5 35 6 35 1 0 3
14 5 30 11 83 15 107 21 117 5 7 2 8 -6 3 -9 -6 -11 -4 -5 5 4 7 9 26 11 44 6
64 17 222 16 246 -1 30 -1 41 -2 150 -1 81 -6 155 -10 155 -1 0 -3 20 -5 45
-2 25 -6 56 -9 70 -2 14 -7 40 -11 59 -3 19 -8 38 -11 43 -3 5 -8 23 -11 41
-11 70 -123 337 -144 345 -5 2 -9 8 -9 14 0 13 -83 130 -116 163 -14 14 -22
25 -19 25 7 0 -78 82 -160 154 -22 20 -46 36 -52 36 -7 0 -13 4 -13 9 0 6 -18
20 -40 32 -22 13 -40 27 -40 31 0 5 -4 7 -9 4 -5 -3 -14 1 -21 9 -7 8 -19 15
-26 15 -8 0 -14 5 -14 10 0 6 -9 10 -20 10 -11 0 -20 5 -20 10 0 6 -5 10 -11
10 -6 0 -45 17 -87 37 -42 21 -81 38 -87 39 -9 3 -110 38 -145 51 -21 8 -31
11 -62 18 -15 3 -39 10 -53 15 -14 5 -25 8 -25 5 0 -2 -18 2 -39 10 -22 7 -42
11 -44 8 -3 -3 -12 -1 -19 3 -7 5 -17 9 -23 10 -5 1 -28 4 -50 8 -75 11 -120
18 -140 22 -10 2 -51 6 -90 9 -38 3 -86 9 -105 12 -43 7 -800 10 -795 3z m520
-1134 c161 -17 361 -74 387 -111 4 -5 10 -7 13 -3 13 13 157 -128 175 -173 7
-16 16 -29 20 -29 3 0 7 -7 8 -15 1 -8 3 -22 4 -30 1 -8 4 -15 8 -15 11 0 33
-110 36 -184 2 -37 5 -71 8 -74 3 -3 1 -11 -5 -18 -7 -8 -7 -14 1 -19 6 -3 8
-10 6 -14 -3 -4 -8 -39 -12 -77 -3 -38 -8 -80 -9 -94 -6 -47 -33 -175 -44
-201 -5 -15 -7 -30 -4 -33 4 -3 1 -6 -5 -6 -7 0 -12 -6 -12 -14 0 -17 -63
-137 -85 -163 -8 -10 -15 -20 -14 -23 3 -16 -169 -170 -190 -170 -6 0 -11 -5
-11 -11 0 -5 -4 -7 -10 -4 -5 3 -10 2 -10 -3 0 -5 -13 -15 -30 -22 -16 -7 -30
-16 -30 -21 0 -5 -7 -6 -15 -3 -8 4 -15 1 -15 -5 0 -6 -3 -11 -7 -10 -16 2
-53 -14 -53 -23 0 -5 -4 -7 -9 -4 -5 3 -34 -3 -65 -14 -31 -10 -56 -17 -56
-14 0 3 -6 2 -12 -3 -7 -4 -24 -9 -38 -11 -14 -1 -32 -5 -40 -8 -8 -4 -28 -8
-45 -10 -64 -7 -152 -15 -197 -19 -26 -2 -52 -6 -58 -10 -5 -3 -10 -1 -10 5 0
6 -4 9 -8 6 -7 -4 -131 -10 -142 -7 -21 8 -120 4 -120 -4 0 -7 -3 -7 -8 0 -4
6 -75 10 -177 10 -93 0 -175 3 -182 8 -6 4 -14 3 -18 -3 -3 -6 -11 -7 -17 -4
-6 4 -23 8 -37 10 -14 1 -30 2 -35 3 -4 1 -5 9 -1 19 8 19 12 41 19 92 3 19
10 60 16 90 6 30 13 69 16 85 2 17 6 39 8 50 2 11 7 40 11 65 4 25 9 54 12 65
6 31 13 67 17 95 2 14 5 25 6 25 1 0 3 14 5 30 2 17 13 82 25 145 18 99 25
142 32 208 1 6 4 12 7 12 3 0 6 10 7 23 1 31 12 104 29 192 5 22 7 46 6 53 -1
6 3 12 10 12 8 0 8 4 -1 15 -7 8 -8 15 -2 15 5 0 12 21 15 48 3 26 8 58 11 72
3 14 8 41 10 60 3 19 8 49 12 65 3 17 7 40 8 52 1 12 5 25 8 28 7 8 70 12 277
20 85 3 156 6 157 8 4 4 399 -2 449 -7z"/>
</g>
</svg>
